<?xml version="1.0" standalone="no"?>
<!DOCTYPE svg PUBLIC "-//W3C//DTD SVG 20010904//EN"
 "http://www.w3.org/TR/2001/REC-SVG-20010904/DTD/svg10.dtd">
<svg version="1.0" xmlns="http://www.w3.org/2000/svg"
 width="1080.000000pt" height="1080.000000pt" viewBox="0 0 1080.000000 1080.000000"
 preserveAspectRatio="xMidYMid meet">

<g transform="translate(0.000000,1080.000000) scale(0.100000,-0.100000)"
fill="#FF3C14" stroke="none">
<path d="M4985 9464 c-208 -20 -279 -28 -405 -50 -807 -137 -1563 -536 -2140
-1130 -606 -624 -973 -1394 -1086 -2279 -28 -219 -26 -693 5 -920 43 -324 119
-630 226 -912 80 -210 237 -521 358 -708 195 -303 331 -463 722 -853 322 -320
447 -429 675 -589 631 -442 1425 -693 2195 -693 913 0 1766 298 2475 865 247
198 543 512 737 781 325 452 575 1052 668 1607 42 254 50 358 49 672 0 318 -8
410 -60 695 -126 684 -425 1310 -883 1845 -87 102 -495 516 -631 641 -113 103
-337 281 -455 360 -532 359 -1096 569 -1750 650 -122 15 -601 27 -700 18z
m950 -569 c361 -42 672 -118 995 -246 130 -51 441 -209 570 -290 127 -80 342
-238 435 -320 82 -73 138 -135 227 -254 187 -250 323 -480 436 -735 432 -979
419 -2097 -35 -3060 -91 -192 -233 -433 -347 -586 -17 -23 -40 -55 -51 -70
-109 -152 -423 -477 -605 -625 -600 -491 -1359 -780 -2141 -818 -468 -22 -930
42 -1359 187 -380 129 -702 300 -1035 547 -141 105 -202 160 -284 259 -481
580 -757 1233 -836 1983 -19 182 -19 562 0 751 116 1127 745 2135 1708 2737
464 290 1006 479 1532 535 61 6 119 13 130 14 72 11 546 4 660 -9z"/>
<path d="M5148 7215 c-271 -44 -488 -129 -707 -278 -312 -212 -562 -523 -686
-852 -143 -382 -136 -912 18 -1285 202 -489 651 -887 1152 -1020 179 -48 277
-61 490 -67 237 -7 353 8 535 67 454 148 817 455 1034 875 l47 90 -301 3
c-233 2 -304 -1 -313 -10 -7 -7 -27 -31 -46 -53 -98 -117 -264 -246 -408 -318
-183 -92 -319 -122 -553 -122 -156 1 -187 4 -281 27 -197 50 -346 127 -509
264 -102 86 -160 147 -222 234 -86 122 -164 307 -183 432 l-7 48 1488 2 1489
3 3 95 c5 139 -15 401 -38 508 -68 321 -228 601 -490 862 -241 240 -547 407
-875 476 -102 22 -151 27 -335 30 -153 2 -240 -1 -302 -11z m478 -530 c108
-19 248 -66 329 -110 126 -68 153 -87 250 -172 143 -127 225 -233 307 -396 38
-74 108 -266 108 -294 0 -11 -220 -13 -1200 -13 l-1200 0 0 24 c0 34 55 187
97 271 51 101 95 167 181 273 183 227 412 363 702 418 95 17 321 17 426 -1z"/>
</g>
</svg>
