<?xml version="1.0" standalone="no"?>
<!DOCTYPE svg PUBLIC "-//W3C//DTD SVG 20010904//EN"
 "http://www.w3.org/TR/2001/REC-SVG-20010904/DTD/svg10.dtd">
<svg version="1.0" xmlns="http://www.w3.org/2000/svg"
 width="1093.000000pt" height="506.000000pt" viewBox="0 0 1093.000000 506.000000"
 preserveAspectRatio="xMidYMid meet">

<g transform="translate(0.000000,506.000000) scale(0.100000,-0.100000)"
fill="#FF3C14" stroke="none">
<path d="M1405 3651 c-967 -181 -1434 -1263 -902 -2093 89 -140 283 -341 444
-462 93 -69 266 -161 369 -195 190 -63 440 -85 632 -57 153 23 266 57 397 121
647 313 938 1055 679 1730 -72 186 -175 337 -358 521 -232 232 -442 356 -715
421 -148 35 -400 41 -546 14z m543 -187 c188 -28 364 -97 532 -209 174 -117
306 -308 389 -562 45 -141 56 -214 56 -388 0 -172 -13 -257 -61 -402 -127
-381 -441 -694 -819 -818 -152 -49 -218 -59 -410 -58 -169 0 -187 2 -296 31
-294 78 -518 221 -646 412 -189 282 -260 612 -203 944 47 279 169 507 376 706
290 279 682 404 1082 344z"/>
<path d="M1546 2864 c-78 -19 -179 -73 -247 -134 -208 -183 -266 -481 -144
-739 27 -57 54 -93 113 -150 129 -127 260 -181 436 -181 58 0 126 6 159 15
138 36 281 139 359 259 21 33 38 63 38 68 0 4 -46 8 -102 8 l-101 0 -52 -49
c-93 -88 -198 -126 -331 -119 -100 5 -185 43 -268 119 -54 49 -106 136 -120
202 l-6 27 520 0 520 0 0 79 c0 112 -14 174 -62 271 -74 151 -214 268 -382
319 -81 25 -237 27 -330 5z m338 -203 c111 -54 207 -170 241 -288 l6 -23 -425
0 -426 0 19 50 c56 146 151 242 286 287 25 8 76 12 136 10 85 -2 103 -6 163
-36z"/>
<path d="M9348 2883 l-3 -228 -142 -3 -143 -3 0 -79 0 -80 145 0 145 0 0 -495
0 -495 90 0 90 0 0 495 0 495 145 0 145 0 0 80 0 80 -145 0 -145 0 0 230 0
230 -90 0 -90 0 -2 -227z"/>
<path d="M4241 2675 c-117 -22 -212 -74 -308 -170 -63 -63 -91 -99 -118 -156
-62 -131 -78 -252 -50 -393 23 -122 65 -198 164 -297 130 -130 250 -179 441
-179 117 1 164 11 260 57 91 45 213 161 254 241 l26 52 -100 0 -101 0 -51 -50
c-168 -166 -431 -163 -604 5 -54 53 -97 129 -110 193 l-6 32 517 0 517 0 -7
98 c-12 164 -56 268 -160 380 -143 155 -357 226 -564 187z m285 -205 c87 -39
165 -115 209 -203 59 -118 98 -107 -381 -107 l-415 0 6 23 c34 112 131 233
227 283 100 52 245 54 354 4z"/>
<path d="M6832 2680 c-214 -39 -401 -195 -473 -396 -30 -83 -38 -265 -15 -354
28 -109 72 -186 155 -270 131 -132 276 -186 479 -178 79 4 122 11 165 27 87
34 203 116 253 180 40 50 84 121 84 136 0 3 -45 5 -100 5 l-100 0 -41 -45
c-115 -125 -331 -163 -487 -88 -111 55 -223 189 -234 283 l-3 25 514 3 514 2
-6 103 c-4 63 -14 125 -27 164 -59 173 -224 330 -400 383 -79 23 -206 32 -278
20z m275 -214 c47 -23 91 -54 123 -86 44 -45 98 -138 115 -197 l6 -23 -415 0
c-477 0 -439 -10 -385 99 42 84 119 166 191 202 81 41 121 49 213 44 64 -4 93
-11 152 -39z"/>
<path d="M8303 2665 c-29 -8 -71 -24 -94 -35 -42 -22 -120 -94 -157 -145 l-21
-30 -1 98 0 97 -90 0 -90 0 0 -575 0 -575 90 0 90 0 0 283 c1 316 10 399 58
502 61 129 169 203 311 212 125 9 193 -34 238 -148 15 -39 18 -93 21 -446 l3
-403 90 0 89 0 0 373 c0 204 -5 403 -10 442 -23 153 -121 288 -245 334 -76 28
-212 36 -282 16z"/>
<path d="M5112 2641 c42 -107 524 -1241 528 -1241 3 0 122 278 264 618 142
339 261 620 263 625 2 4 -40 7 -94 7 l-99 0 -164 -429 c-91 -236 -168 -427
-171 -425 -3 2 -80 194 -170 428 l-164 426 -98 0 c-54 0 -97 -4 -95 -9z"/>
</g>
</svg>
